<svg xmlns="http://www.w3.org/2000/svg" version="1.1" xmlns:xlink="http://www.w3.org/1999/xlink" xmlns:svgjs="http://svgjs.dev/svgjs" width="2000" height="1247" viewBox="0 0 2000 1247"><g transform="matrix(1,0,0,1,-1.2121212121212466,0.504858299595071)"><svg viewBox="0 0 396 247" data-background-color="#ffffff" preserveAspectRatio="xMidYMid meet" height="1247" width="2000" xmlns="http://www.w3.org/2000/svg" xmlns:xlink="http://www.w3.org/1999/xlink"><defs></defs><g id="tight-bounds" transform="matrix(1,0,0,1,0.2400000000000091,-0.09999999999999432)"><svg viewBox="0 0 395.52 247.2" height="247.2" width="395.52"><g><svg></svg></g><g><svg viewBox="0 0 395.52 247.2" height="247.2" width="395.52"><g transform="matrix(1,0,0,1,75.54432,77.61624848565711)"><svg viewBox="0 0 244.43135999999998 91.96750302868577" height="91.96750302868577" width="244.43135999999998"><g><svg viewBox="0 0 244.43135999999998 91.96750302868577" height="91.96750302868577" width="244.43135999999998"><g><svg viewBox="0 0 244.43136 91.96750302868578" height="91.96750302868577" width="244.43135999999998"><g><svg viewBox="0 0 244.43136 91.96750302868578" height="91.96750302868578" width="244.43136"><g><svg viewBox="0 0 244.43136 91.96750302868578" height="91.96750302868578" width="244.43136"><g><svg viewBox="0 0 244.43136 91.96750302868578" height="91.96750302868578" width="244.43136"><g transform="matrix(1,0,0,1,0,0)"><svg width="244.43136" viewBox="117.62000274658203 -36.150001525878906 224.85000610351562 80.0999984741211" height="91.96750302868578" data-palette-color="#124948"><svg></svg><svg></svg><g class="undefined-text-0" data-fill-palette-color="primary" id="text-0"><path d="M162.27 0v-36.15h21.45v4.65h-16.6v11.55h14.55v4.6h-14.55v15.35zM191.72-36.15h9.6c1.833 0 3.527 0.24 5.08 0.72 1.547 0.487 2.897 1.207 4.05 2.16 1.147 0.947 2.047 2.11 2.7 3.49 0.647 1.387 0.97 2.997 0.97 4.83v0c0 1.433-0.207 2.833-0.62 4.2-0.42 1.367-1.113 2.607-2.08 3.72-0.967 1.12-2.223 2.02-3.77 2.7-1.553 0.687-3.463 1.03-5.73 1.03v0h-5.35v13.3h-4.85zM196.57-17.95h5.25c1.433 0 2.627-0.217 3.58-0.65 0.947-0.433 1.687-0.993 2.22-1.68 0.533-0.68 0.917-1.42 1.15-2.22 0.233-0.8 0.35-1.55 0.35-2.25v0c0-0.733-0.123-1.493-0.37-2.28-0.253-0.78-0.653-1.503-1.2-2.17-0.553-0.667-1.27-1.217-2.15-1.65-0.887-0.433-1.963-0.65-3.23-0.65v0h-5.6zM202.02-15.05l5.75-0.15 9.45 15.2h-5.6zM229.02-36.15v23.35c0 1.633 0.393 3.09 1.18 4.37 0.78 1.287 1.82 2.297 3.12 3.03 1.3 0.733 2.767 1.1 4.4 1.1v0c1.7 0 3.217-0.367 4.55-1.1 1.333-0.733 2.383-1.743 3.15-3.03 0.767-1.28 1.15-2.737 1.15-4.37v0-23.35h4.75v23.5c0 2.633-0.607 4.933-1.82 6.9-1.22 1.967-2.853 3.483-4.9 4.55-2.053 1.067-4.347 1.6-6.88 1.6v0 0c-2.533 0-4.817-0.533-6.85-1.6-2.033-1.067-3.65-2.583-4.85-4.55-1.2-1.967-1.8-4.267-1.8-6.9v0-23.5zM261.22 0v-36.15h4.85v36.15zM273.82-31.5v-4.65h24v4.65h-9.7v31.5h-4.85v-31.5z" data-fill-palette-color="primary" fill="#124948" opacity="1"></path><path d="M117.62 42.3v-36.15h21.45v4.65h-16.6v11.55h14.55v4.6h-14.55v15.35zM147.07 42.3v-36.15h23.5v4.65h-18.65v11h16.65v4.65h-16.65v11.2h19.35v4.65zM200.22 8.9l-1.85 3.7c-1.233-0.633-2.583-1.183-4.05-1.65-1.467-0.467-2.9-0.7-4.3-0.7v0c-1.933 0-3.473 0.45-4.62 1.35-1.153 0.9-1.73 2.1-1.73 3.6v0c0 1.133 0.367 2.09 1.1 2.87 0.733 0.787 1.7 1.463 2.9 2.03 1.2 0.567 2.45 1.1 3.75 1.6v0c1.133 0.433 2.25 0.917 3.35 1.45 1.1 0.533 2.093 1.2 2.98 2 0.88 0.8 1.58 1.783 2.1 2.95 0.513 1.167 0.77 2.617 0.77 4.35v0c0 1.9-0.473 3.633-1.42 5.2-0.953 1.567-2.313 2.8-4.08 3.7-1.767 0.9-3.867 1.35-6.3 1.35v0c-1.6 0-3.123-0.183-4.57-0.55-1.453-0.367-2.797-0.843-4.03-1.43-1.233-0.58-2.333-1.187-3.3-1.82v0l2.15-3.8c0.8 0.567 1.717 1.107 2.75 1.62 1.033 0.52 2.117 0.937 3.25 1.25 1.133 0.32 2.233 0.48 3.3 0.48v0c1.133 0 2.26-0.21 3.38-0.63 1.113-0.413 2.037-1.053 2.77-1.92 0.733-0.867 1.1-2.017 1.1-3.45v0c0-1.233-0.323-2.26-0.97-3.08-0.653-0.813-1.513-1.513-2.58-2.1-1.067-0.58-2.2-1.103-3.4-1.57v0c-1.133-0.433-2.283-0.91-3.45-1.43-1.167-0.513-2.25-1.147-3.25-1.9-1-0.747-1.8-1.67-2.4-2.77-0.6-1.1-0.9-2.433-0.9-4v0c0-1.9 0.46-3.56 1.38-4.98 0.913-1.413 2.17-2.527 3.77-3.34 1.6-0.82 3.433-1.263 5.5-1.33v0c2.333 0 4.393 0.283 6.18 0.85 1.78 0.567 3.353 1.267 4.72 2.1zM205.87 10.8v-4.65h24v4.65h-9.7v31.5h-4.85v-31.5zM237.57 42.3v-36.15h4.85v36.15zM249.67 6.15h5.75l11.9 29.9-2.75-0.55 11.3-29.35h5.65l-15.95 37.8zM285.37 42.3h-4.75l15.8-37.65h0.3l15.75 37.65h-5.55l-11.8-30.05 3.45-2.25zM288.47 32.8l1.4-4.2h13.45l1.6 4.2zM319.27 42.3v-36.15h4.85v31.5h18.35v4.65z" data-fill-palette-color="primary" fill="#124948" opacity="1"></path></g></svg></g></svg></g></svg></g></svg></g></svg></g></svg></g></svg></g><g><path d="M244.431 179.67A122.216 122.216 0 1 1 244.431 67.53L240.579 67.53A118.363 118.363 0 1 0 240.579 179.67L244.431 179.67" fill="#124948" stroke="transparent" data-fill-palette-color="tertiary"></path></g></svg></g></svg><rect width="395.52" height="247.2" fill="none" stroke="none" visibility="hidden"></rect></g></svg></g></svg>